<svg width="300" height="371" fill="none" xmlns="http://www.w3.org/2000/svg" class=""><path d="M63.391 176.777v-53" stroke="#DF536B" stroke-width="4" stroke-dasharray="8 7"></path><path d="M93.478 92.965l96.139.063" stroke="#DF536B" stroke-width="4" stroke-dasharray="8 8"></path><path d="M26.868 54.5l14.5 14.5M51.368 59V45M30.368 80h-13" stroke="#DF536B" stroke-width="4" stroke-linecap="round"></path><path fill-rule="evenodd" clip-rule="evenodd" d="M60.251 61.828a4 4 0 015.657 0l28.055 28.055a4 4 0 010 5.657l-28.055 28.054a3.998 3.998 0 01-5.657 0L32.197 95.54a4 4 0 010-5.657L60.25 61.828zm6.252 46.672a3.5 3.5 0 11-7 0 3.5 3.5 0 017 0zm-6.955-21.843c0-1.599.417-2.737.974-3.424.504-.62 1.278-1.076 2.568-1.076 1.43 0 2.139.427 2.549.917.475.567.909 1.651.909 3.583 0 .943-.538 1.66-1.961 2.706-.155.115-.347.25-.557.398-.532.376-1.18.833-1.647 1.238-.654.568-1.793 1.701-1.793 3.433v4.725a2.5 2.5 0 105 0v-4.319c.02-.019.043-.04.069-.061.281-.244.57-.447.963-.723.256-.18.557-.39.929-.664 1.556-1.145 3.997-3.176 3.997-6.733 0-2.569-.562-4.985-2.074-6.792-1.578-1.885-3.849-2.708-6.384-2.708-2.677 0-4.924 1.045-6.45 2.924-1.471 1.813-2.092 4.174-2.092 6.576a2.5 2.5 0 005 0zM65.434 95l.014-.02a.113.113 0 01-.014.02z" fill="#DF536B"></path><path fill-rule="evenodd" clip-rule="evenodd" d="M163.626 39.6c-3.354 18.726.147 45.173 22.794 67.82 23.507 23.507 48.724 28.932 70.16 25.894-15.766-2.01-37.899-14.792-57.98-34.874-20.449-20.449-33.329-43.025-34.974-58.84z" fill="#7187A5"></path><g filter="url(#filter0_i)"><ellipse cx="225.56" cy="73.56" rx="31" ry="73.029" transform="rotate(-45 225.56 73.56)" fill="#D3E0F1"></ellipse></g><path d="M254.083 48.92l-37 37M253.617 49.92l-12.809 53.488M254.92 49.92l13.336 56.5M253.251 49.131l-53.615 12.266M253.264 47.828L196.903 33.92" stroke="#41556C" stroke-width="3" stroke-linecap="round" stroke-linejoin="round"></path><ellipse cx="257.626" cy="45.791" rx="5.013" ry="10.127" transform="rotate(-45 257.626 45.791)" fill="#7187A5"></ellipse><path d="M256.378 47.403c2.562 2.562 5.461 3.528 6.742 2.247l5.243-5.243c.026-.026.037-.06.057-.09.066-.05.133-.1.193-.16 1.281-1.281.315-4.18-2.247-6.742-2.563-2.563-5.461-3.528-6.742-2.247l-5.494 5.493c-1.281 1.281-.315 4.18 2.248 6.742zm8.989-8.99c2.134 2.135 2.757 4.236 2.247 4.745a.489.489 0 01-.091.066c-.007.003-.015.003-.021.006-.561.287-2.133-.154-3.87-1.62l-.026-.023c-.244-.205-.489-.43-.736-.676-2.134-2.134-2.757-4.235-2.247-4.745.509-.509 2.61.114 4.744 2.248z" fill="#41556C"></path><path d="M183.468 101.642l11.329 2.988-19.929 75.789-12-.431 20.6-78.346z" fill="#7187A5"></path><path d="M192.101 109.65l11.71-.358 2.057 71.12h-11.5l-2.267-70.762z" fill="#7187A5"></path><path d="M272.5 10s8.1 2.5 14.5 8.5 7.5 13.5 7.5 13.5M270 18s5.891 1.818 10.545 6.182C285.2 28.546 286 34 286 34M268 27s3.314 1.023 5.932 3.477C276.55 32.932 277 36 277 36" stroke="#41556C" stroke-width="3" stroke-linecap="round"></path><g filter="url(#filter1_dd)"><rect x="12" y="176" width="240" height="180" rx="8" fill="#283341"></rect><path d="M12 184a8 8 0 018-8h224a8 8 0 018 8v16H12v-16z" fill="#41556C"></path><circle cx="23" cy="188" r="3" fill="#DF536B"></circle><circle cx="31" cy="188" r="3" fill="#F9A86C"></circle><circle cx="39" cy="188" r="3" fill="#34CBAD"></circle><path d="M33 338.125l6.375-5.312L33 327.5" stroke="#F8FAFD" stroke-width="2" stroke-linecap="round" stroke-linejoin="round"></path><path d="M41.5 338.125H50" stroke="#F8FAFD" stroke-width="2" stroke-linecap="round"></path><path d="M34.094 226.285a2.171 2.171 0 01-1.378-.47 2.3 2.3 0 01-.463-.507 3.63 3.63 0 01-.324-.622 3.789 3.789 0 01-.19-.68 4.12 4.12 0 01-.057-.679v-1.035c0-.588-.14-1.011-.42-1.269-.274-.258-.695-.387-1.262-.387v-1.117c.567 0 .988-.13 1.263-.388.279-.262.419-.689.419-1.282v-1.035c0-.22.017-.446.05-.679.038-.232.098-.459.178-.679.08-.22.182-.425.305-.616.127-.194.28-.364.457-.507a2.196 2.196 0 011.422-.47l.171.882c-.28-.004-.497.057-.654.184-.156.123-.27.284-.342.483a2.46 2.46 0 00-.134.672c-.012.246-.019.489-.019.73v1.035c0 .504-.12.95-.362 1.339-.24.39-.615.686-1.123.889.512.203.886.497 1.123.882.242.386.362.83.362 1.333v1.035c0 .241.015.485.045.73.033.25.093.474.177.673.09.199.208.36.356.482a.819.819 0 00.571.184l-.171.889zm12.663 3.644l-.158 2.533h-1.003v-3.212h1.161v.679zm2.482 0l-.158 2.533h-1.003v-3.212h1.161v.679zm6.367 9.198c-.508 0-.971-.085-1.39-.254a3.252 3.252 0 01-1.08-.698 3.164 3.164 0 01-.691-1.048 3.457 3.457 0 01-.248-1.314v-.26c0-.546.087-1.037.26-1.472a3.57 3.57 0 01.705-1.118 3.072 3.072 0 011.028-.711 3.17 3.17 0 011.238-.247c.5 0 .94.085 1.32.254.381.165.699.4.953.704.258.301.453.658.584 1.073.13.415.196.87.196 1.365v.641h-4.76c.025.267.09.514.197.743.105.228.243.427.412.596.174.165.375.297.603.394.233.093.487.14.762.14a2.45 2.45 0 001.06-.229c.326-.152.59-.362.793-.628l.825.774c-.11.165-.251.326-.425.482-.173.153-.376.29-.61.413a3.638 3.638 0 01-.786.286 3.699 3.699 0 01-.946.114zm-.184-5.897c-.212 0-.408.038-.59.114a1.468 1.468 0 00-.49.337 1.916 1.916 0 00-.367.533 2.639 2.639 0 00-.21.711h3.218v-.114a2.072 2.072 0 00-.12-.584 1.496 1.496 0 00-.286-.508 1.381 1.381 0 00-.482-.356 1.575 1.575 0 00-.673-.133zm9.509-1.225a5.03 5.03 0 01.717.051c.114.017.218.036.311.057.093.017.171.038.235.063l-.216 1.492a6.19 6.19 0 00-1.377-.159c-.508 0-.919.106-1.232.318a1.86 1.86 0 00-.685.882V239h-1.517v-6.868h1.421l.07 1.073c.28-.373.61-.665.99-.876a2.576 2.576 0 011.283-.324zm7.807 0a5.03 5.03 0 01.718.051c.114.017.218.036.31.057.094.017.172.038.235.063l-.215 1.492a6.19 6.19 0 00-1.378-.159c-.508 0-.918.106-1.231.318a1.86 1.86 0 00-.686.882V239h-1.517v-6.868h1.422l.07 1.073c.28-.373.61-.665.99-.876a2.575 2.575 0 011.282-.324zm2.812 3.497c0-.495.072-.956.216-1.383.148-.428.358-.798.628-1.111.276-.313.61-.559 1.003-.737.394-.177.84-.266 1.34-.266.503 0 .952.089 1.346.266a2.84 2.84 0 011.002.737c.276.313.485.683.629 1.111.144.427.216.888.216 1.383v.134c0 .499-.072.962-.216 1.39a3.22 3.22 0 01-.629 1.111c-.27.309-.603.552-.996.73-.394.177-.84.266-1.34.266-.503 0-.954-.089-1.352-.266a2.953 2.953 0 01-1.003-.73 3.362 3.362 0 01-.628-1.111 4.334 4.334 0 01-.216-1.39v-.134zm1.517.134c0 .313.032.607.096.882.067.275.169.518.304.73.14.207.316.372.527.495.212.119.463.178.755.178.284 0 .53-.059.737-.178.211-.123.385-.288.52-.495a2.22 2.22 0 00.305-.73 3.68 3.68 0 00.102-.882v-.134c0-.304-.034-.594-.102-.869a2.151 2.151 0 00-.305-.724 1.442 1.442 0 00-1.27-.679c-.287 0-.537.061-.748.184a1.538 1.538 0 00-.52.495 2.34 2.34 0 00-.305.724 3.854 3.854 0 00-.096.869v.134zm11.287-3.631a5.032 5.032 0 01.717.051c.114.017.218.036.31.057.094.017.172.038.236.063l-.216 1.492a6.19 6.19 0 00-1.378-.159c-.507 0-.918.106-1.231.318a1.86 1.86 0 00-.686.882V239H84.59v-6.868h1.422l.07 1.073c.28-.373.61-.665.99-.876a2.576 2.576 0 011.282-.324zm5.249-2.076l-.159 2.533h-1.003v-3.212h1.162v.679zm2.482 0l-.159 2.533h-1.003v-3.212h1.162v.679zm5.262 8.163c0-.148.023-.287.07-.419a.962.962 0 01.216-.336.975.975 0 01.343-.229c.139-.055.298-.082.476-.082.177 0 .334.027.469.082.14.055.256.132.35.229a.848.848 0 01.215.336c.051.132.076.271.076.419a1.1 1.1 0 01-.076.413.937.937 0 01-.565.539 1.238 1.238 0 01-.469.083c-.178 0-.337-.028-.476-.083a.932.932 0 01-.559-.539 1.182 1.182 0 01-.07-.413zm0-5.402c0-.148.023-.287.07-.419a.962.962 0 01.216-.336.972.972 0 01.343-.228c.139-.055.298-.083.476-.083.177 0 .334.028.469.083.14.055.256.131.35.228a.848.848 0 01.215.336c.051.132.076.271.076.419 0 .149-.025.286-.076.413a.864.864 0 01-.215.324c-.094.093-.21.167-.35.222a1.326 1.326 0 01-.469.076c-.178 0-.337-.025-.476-.076a.99.99 0 01-.559-.546 1.178 1.178 0 01-.07-.413zm18.631 8.595a2.168 2.168 0 01-1.841-.977 3.632 3.632 0 01-.324-.622 3.73 3.73 0 01-.248-1.359v-1.035c0-.588-.139-1.011-.419-1.269-.275-.258-.696-.387-1.263-.387v-1.117c.567 0 .988-.13 1.263-.388.28-.262.419-.689.419-1.282v-1.035a3.77 3.77 0 01.229-1.358c.08-.22.182-.425.305-.616a2.17 2.17 0 01.457-.507 2.193 2.193 0 011.422-.47l.171.882c-.279-.004-.497.057-.654.184a1.06 1.06 0 00-.343.483 2.465 2.465 0 00-.133.672c-.013.246-.019.489-.019.73v1.035c0 .504-.121.95-.362 1.339-.241.39-.616.686-1.123.889.512.203.886.497 1.123.882.241.386.362.83.362 1.333v1.035c0 .241.015.485.044.73.034.25.094.474.178.673a1.3 1.3 0 00.356.482.817.817 0 00.571.184l-.171.889zm-57.605 3.644l-.16 2.533h-1.002v-3.212h1.162v.679zm2.482 0l-.16 2.533h-1.002v-3.212h1.162v.679zm6.207.54v1.663h2.597v1.13h-2.597v3.294c0 .258.03.472.09.641.063.17.15.305.26.407.11.101.239.173.387.215.148.038.31.057.489.057.13 0 .266-.006.406-.019.144-.017.281-.033.412-.05.136-.022.259-.043.369-.064.114-.025.21-.049.285-.07l.172 1.048a2.43 2.43 0 01-.4.177c-.153.051-.32.094-.502.127a5.8 5.8 0 01-.571.077 5.382 5.382 0 01-.578.031c-.342 0-.658-.046-.945-.139a1.985 1.985 0 01-.737-.445 2.154 2.154 0 01-.482-.774c-.114-.317-.172-.696-.172-1.136v-3.377H67.87v-1.13h1.675v-1.663h1.517zm7.49 5.782l.261.826 1.93-4.945h1.682l-3.479 7.909c-.076.174-.175.36-.298.559a2.747 2.747 0 01-.457.565 2.247 2.247 0 01-.641.431c-.25.119-.542.178-.876.178-.14 0-.282-.013-.425-.038a3.538 3.538 0 01-.375-.076l.216-1.181h.12l.16.013c.054.004.105.006.151.006.051.004.091.006.121.006.148 0 .28-.044.394-.133.118-.085.222-.184.31-.298.09-.11.161-.22.216-.33.06-.106.102-.178.127-.216l.451-.851-2.92-6.544h1.676l1.657 4.119zm11.096-.615c0 .499-.059.962-.177 1.39a3.415 3.415 0 01-.52 1.111c-.23.309-.51.552-.845.73-.33.173-.711.26-1.143.26-.389 0-.734-.064-1.034-.19a2.2 2.2 0 01-.768-.546v3.25h-1.517v-9.509h1.396l.063.692c.22-.263.48-.464.781-.603a2.455 2.455 0 011.06-.216c.436 0 .821.085 1.156.254.338.169.622.408.85.717.229.305.402.673.52 1.105.12.427.178.901.178 1.421v.134zm-1.517-.134c0-.308-.031-.598-.095-.869a2.234 2.234 0 00-.292-.717 1.447 1.447 0 00-.501-.489 1.406 1.406 0 00-.724-.178c-.339 0-.618.072-.838.216-.22.144-.393.336-.52.577v3.073c.127.237.298.429.514.577.22.148.505.223.857.223.279 0 .52-.062.723-.185.204-.122.369-.287.496-.495.13-.207.226-.448.285-.723.064-.275.095-.567.095-.876v-.134zm6.513 3.625c-.508 0-.971-.085-1.39-.254a3.252 3.252 0 01-1.08-.698 3.162 3.162 0 01-.691-1.048 3.457 3.457 0 01-.248-1.314v-.26c0-.546.087-1.037.26-1.472a3.57 3.57 0 01.705-1.118 3.072 3.072 0 011.028-.711 3.17 3.17 0 011.238-.247c.5 0 .94.085 1.32.254.382.165.699.4.953.704.258.301.453.658.584 1.073.13.415.197.87.197 1.365v.641h-4.761c.025.267.09.514.197.743.105.228.243.427.412.596.174.165.375.297.603.394.233.093.487.14.762.14a2.45 2.45 0 001.06-.229c.326-.152.59-.362.793-.628l.826.774c-.11.165-.252.326-.426.482-.173.153-.376.29-.609.413a3.639 3.639 0 01-.787.286 3.698 3.698 0 01-.946.114zm-.184-5.897a1.467 1.467 0 00-1.08.451 1.916 1.916 0 00-.367.533 2.635 2.635 0 00-.21.711h3.219v-.114a2.072 2.072 0 00-.121-.584 1.496 1.496 0 00-.286-.508 1.381 1.381 0 00-.482-.356 1.575 1.575 0 00-.673-.133zm6.951-3.301l-.159 2.533h-1.003v-3.212h1.162v.679zm2.482 0l-.159 2.533h-1.003v-3.212h1.162v.679zm5.262 8.163c0-.148.023-.287.07-.419a.993.993 0 01.558-.565c.14-.055.299-.082.476-.082.178 0 .335.027.47.082.14.055.256.132.349.229a.861.861 0 01.216.336c.051.132.076.271.076.419a1.1 1.1 0 01-.076.413.925.925 0 01-.565.539 1.24 1.24 0 01-.47.083c-.177 0-.336-.028-.476-.083a.949.949 0 01-.558-.539 1.182 1.182 0 01-.07-.413zm0-5.402c0-.148.023-.287.07-.419a.99.99 0 01.558-.564c.14-.055.299-.083.476-.083.178 0 .335.028.47.083.14.055.256.131.349.228a.861.861 0 01.216.336c.051.132.076.271.076.419 0 .149-.025.286-.076.413a.879.879 0 01-.216.324 1.005 1.005 0 01-.349.222 1.328 1.328 0 01-.47.076c-.177 0-.336-.025-.476-.076a.971.971 0 01-.558-.546 1.178 1.178 0 01-.07-.413zm14.891-.558l.096.952c.249-.343.55-.607.901-.793a2.453 2.453 0 011.181-.286c.351 0 .67.051.958.152.292.102.542.26.749.476.212.216.375.495.489.838.118.343.178.756.178 1.238V254h-1.517v-4.266c0-.283-.034-.52-.102-.711a.999.999 0 00-.717-.698 2.102 2.102 0 00-.591-.076c-.334 0-.626.074-.876.222a1.73 1.73 0 00-.596.603V254h-1.524v-6.868h1.371zm6.158 3.37c0-.495.072-.956.215-1.383.149-.428.358-.798.629-1.111a2.914 2.914 0 011.003-.737 3.23 3.23 0 011.339-.266c.504 0 .952.089 1.346.266a2.84 2.84 0 011.003.737c.275.313.484.683.628 1.111.144.427.216.888.216 1.383v.134c0 .499-.072.962-.216 1.39a3.222 3.222 0 01-.628 1.111 2.887 2.887 0 01-.997.73 3.23 3.23 0 01-1.339.266c-.504 0-.954-.089-1.352-.266a2.948 2.948 0 01-1.003-.73 3.376 3.376 0 01-.629-1.111 4.36 4.36 0 01-.215-1.39v-.134zm1.517.134c0 .313.031.607.095.882.068.275.169.518.305.73.139.207.315.372.526.495.212.119.464.178.756.178.283 0 .529-.059.736-.178.212-.123.385-.288.521-.495.139-.212.241-.455.304-.73.068-.275.102-.569.102-.882v-.134a3.61 3.61 0 00-.102-.869 2.157 2.157 0 00-.304-.724 1.541 1.541 0 00-.521-.495 1.442 1.442 0 00-.749-.184c-.288 0-.537.061-.749.184a1.538 1.538 0 00-.52.495 2.334 2.334 0 00-.305.724 3.826 3.826 0 00-.095.869v.134zm9.61-5.167v1.663h2.596v1.13h-2.596v3.294c0 .258.03.472.089.641.063.17.15.305.26.407.11.101.239.173.387.215.148.038.311.057.489.057.131 0 .267-.006.406-.019.144-.017.282-.033.413-.05.135-.022.258-.043.368-.064.114-.025.21-.049.286-.07l.171 1.048c-.11.063-.243.122-.4.177a3.588 3.588 0 01-.501.127 5.83 5.83 0 01-.571.077 5.398 5.398 0 01-.578.031c-.343 0-.658-.046-.946-.139a1.984 1.984 0 01-.736-.445 2.163 2.163 0 01-.483-.774c-.114-.317-.171-.696-.171-1.136v-3.377h-1.676v-1.13h1.676v-1.663h1.517zm10.563 9.724h-5.828V254h5.828v1.193zm3.738-1.193v-5.738h-1.847v-1.13h1.847v-.425c0-.445.066-.836.197-1.175a2.28 2.28 0 01.578-.857 2.52 2.52 0 01.914-.527 3.678 3.678 0 011.2-.184c.291 0 .569.024.831.07.267.042.544.093.832.153l-.134 1.206a4.81 4.81 0 00-.577-.121 4.393 4.393 0 00-.743-.057c-.546 0-.946.129-1.2.387-.249.258-.374.626-.374 1.105v.425h2.552v1.13h-2.552V254h-1.524zm5.802-3.498c0-.495.072-.956.216-1.383.148-.428.357-.798.628-1.111.275-.313.61-.559 1.003-.737.394-.177.84-.266 1.34-.266.503 0 .952.089 1.345.266a2.84 2.84 0 011.003.737c.275.313.485.683.629 1.111.144.427.215.888.215 1.383v.134c0 .499-.071.962-.215 1.39a3.224 3.224 0 01-.629 1.111 2.892 2.892 0 01-.996.73c-.394.177-.84.266-1.34.266-.503 0-.954-.089-1.352-.266a2.958 2.958 0 01-1.003-.73 3.356 3.356 0 01-.628-1.111 4.331 4.331 0 01-.216-1.39v-.134zm1.517.134c0 .313.032.607.095.882.068.275.17.518.305.73.14.207.315.372.527.495.212.119.463.178.755.178.284 0 .529-.059.737-.178.211-.123.385-.288.52-.495.14-.212.241-.455.305-.73.068-.275.101-.569.101-.882v-.134a3.61 3.61 0 00-.101-.869 2.158 2.158 0 00-.305-.724 1.444 1.444 0 00-1.269-.679c-.288 0-.538.061-.749.184a1.532 1.532 0 00-.521.495 2.358 2.358 0 00-.305.724 3.883 3.883 0 00-.095.869v.134zm10.975 2.425a2.566 2.566 0 01-.85.793c-.33.186-.701.279-1.111.279-.356 0-.681-.055-.978-.165a1.896 1.896 0 01-.755-.52 2.624 2.624 0 01-.489-.914c-.114-.373-.171-.819-.171-1.34v-4.062h1.517v4.075c0 .33.023.603.07.819.05.216.127.387.228.514a.852.852 0 00.381.273c.152.051.334.076.546.076.406 0 .734-.078.984-.235.25-.161.438-.376.565-.647v-4.875h1.523V254h-1.371l-.089-.939zm4.774-5.929l.095.952c.25-.343.55-.607.901-.793a2.456 2.456 0 011.181-.286c.351 0 .671.051.958.152.292.102.542.26.749.476.212.216.375.495.489.838.119.343.178.756.178 1.238V254h-1.517v-4.266c0-.283-.034-.52-.102-.711a1.073 1.073 0 00-.279-.457.988.988 0 00-.438-.241 2.09 2.09 0 00-.59-.076c-.335 0-.627.074-.876.222a1.724 1.724 0 00-.597.603V254h-1.523v-6.868h1.371zm6.233 3.383c0-.52.064-.996.191-1.428.126-.432.308-.802.545-1.111.237-.309.523-.548.857-.717a2.513 2.513 0 011.137-.254c.376 0 .708.065.996.197.288.127.54.311.756.552v-3.504h1.523V254h-1.377l-.077-.698a2.196 2.196 0 01-.78.615c-.301.14-.652.21-1.054.21-.415 0-.789-.087-1.124-.26a2.628 2.628 0 01-.857-.73 3.57 3.57 0 01-.545-1.098 4.867 4.867 0 01-.191-1.391v-.133zm1.517.133c0 .309.03.599.089.87s.152.508.279.711c.132.203.297.364.495.482.204.115.445.172.724.172.347 0 .631-.074.851-.222.22-.153.395-.356.527-.61v-2.983a1.583 1.583 0 00-.534-.597c-.22-.148-.497-.222-.831-.222-.284 0-.527.059-.73.178a1.464 1.464 0 00-.495.489 2.423 2.423 0 00-.286.723 4.169 4.169 0 00-.089.876v.133zm9.833 3.143c0 .224-.03.454-.089.691-.055.237-.138.47-.248.699a3.632 3.632 0 01-.387.647 3.242 3.242 0 01-.495.552l-.857-.45c.182-.305.322-.627.419-.965.097-.334.146-.709.146-1.124v-1.326h1.517l-.006 1.276zm-133.91 6.138l-.16 2.533h-1.002v-3.212h1.162v.679zm2.482 0l-.16 2.533h-1.002v-3.212h1.162v.679zm4.043 2.203l.038.723c.135-.266.317-.473.546-.622.228-.152.504-.228.825-.228.292 0 .533.059.724.178.194.114.34.294.438.539a1.53 1.53 0 01.52-.52c.212-.132.468-.197.768-.197.225 0 .43.038.616.114.19.072.351.188.483.349.135.161.239.366.31.616.077.25.115.55.115.901V269h-1.41v-5.027c0-.275-.059-.464-.177-.565a.627.627 0 00-.445-.159.623.623 0 00-.634.451v5.3h-1.378v-5.027c0-.267-.055-.453-.165-.559a.58.58 0 00-.438-.165c-.177 0-.317.038-.419.114a.733.733 0 00-.234.311V269h-1.41v-6.868h1.327zm10.13 6.995c-.507 0-.97-.085-1.39-.254a3.25 3.25 0 01-1.078-.698 3.16 3.16 0 01-.692-1.048 3.455 3.455 0 01-.248-1.314v-.26c0-.546.087-1.037.26-1.472a3.57 3.57 0 01.705-1.118 3.072 3.072 0 011.028-.711 3.169 3.169 0 011.238-.247c.5 0 .94.085 1.32.254.381.165.699.4.953.704.258.301.452.658.584 1.073.13.415.196.87.196 1.365v.641h-4.76c.025.267.09.514.196.743.106.228.244.427.413.596.173.165.374.297.603.394.233.093.487.14.762.14a2.45 2.45 0 001.06-.229c.326-.152.59-.362.793-.628l.825.774c-.11.165-.251.326-.425.482-.173.153-.376.29-.61.413a3.636 3.636 0 01-.786.286 3.698 3.698 0 01-.946.114zm-.183-5.897a1.467 1.467 0 00-1.08.451 1.913 1.913 0 00-.368.533 2.632 2.632 0 00-.209.711h3.218v-.114a2.065 2.065 0 00-.12-.584 1.494 1.494 0 00-.286-.508 1.383 1.383 0 00-.482-.356 1.576 1.576 0 00-.673-.133zm9.267 3.91a.687.687 0 00-.07-.311.646.646 0 00-.253-.26 1.918 1.918 0 00-.496-.222 6.751 6.751 0 00-.8-.197 8.24 8.24 0 01-1.104-.305 3.642 3.642 0 01-.844-.425 1.868 1.868 0 01-.54-.571 1.497 1.497 0 01-.19-.762c0-.279.066-.544.197-.794.13-.253.317-.476.558-.666a2.84 2.84 0 01.889-.451 3.79 3.79 0 011.174-.171c.457 0 .866.057 1.225.171.364.115.671.271.92.47.25.195.44.425.572.692.136.266.203.552.203.857h-1.517a.875.875 0 00-.089-.387.967.967 0 00-.266-.337 1.3 1.3 0 00-.445-.228 1.845 1.845 0 00-.603-.089 2.08 2.08 0 00-.596.076c-.165.047-.303.11-.413.19a.77.77 0 00-.248.273.81.81 0 00-.02.641.633.633 0 00.23.254c.11.077.262.146.457.21.195.059.446.116.755.171.432.076.82.172 1.162.286.347.114.641.254.882.419.246.165.434.362.565.59.131.224.197.489.197.794 0 .304-.07.584-.21.838a2.02 2.02 0 01-.596.66 3.02 3.02 0 01-.933.425c-.36.102-.764.152-1.213.152-.499 0-.94-.065-1.32-.196-.38-.136-.7-.312-.958-.527a2.264 2.264 0 01-.59-.737 1.927 1.927 0 01-.198-.838h1.473a1.083 1.083 0 00.54.902c.152.089.321.154.507.197.187.038.375.057.565.057.47 0 .828-.079 1.073-.235.246-.161.368-.366.368-.616zm7.808 0a.687.687 0 00-.07-.311.646.646 0 00-.254-.26 1.916 1.916 0 00-.495-.222 6.751 6.751 0 00-.8-.197 8.244 8.244 0 01-1.104-.305 3.642 3.642 0 01-.844-.425 1.868 1.868 0 01-.54-.571 1.497 1.497 0 01-.19-.762c0-.279.065-.544.196-.794.132-.253.318-.476.559-.666a2.84 2.84 0 01.889-.451 3.79 3.79 0 011.174-.171c.457 0 .865.057 1.225.171.364.115.67.271.92.47.25.195.44.425.572.692.135.266.203.552.203.857h-1.517a.875.875 0 00-.09-.387.967.967 0 00-.266-.337 1.3 1.3 0 00-.444-.228 1.845 1.845 0 00-.603-.089 2.08 2.08 0 00-.597.076c-.165.047-.302.11-.412.19a.77.77 0 00-.248.273.813.813 0 00-.02.641.633.633 0 00.23.254c.11.077.262.146.457.21.194.059.446.116.755.171.432.076.819.172 1.162.286.347.114.64.254.882.419.245.165.434.362.565.59.131.224.197.489.197.794 0 .304-.07.584-.21.838a2.02 2.02 0 01-.596.66 3.02 3.02 0 01-.934.425c-.36.102-.763.152-1.212.152-.5 0-.94-.065-1.32-.196-.381-.136-.7-.312-.959-.527a2.263 2.263 0 01-.59-.737 1.927 1.927 0 01-.197-.838h1.473a1.083 1.083 0 00.54.902c.152.089.32.154.507.197.186.038.375.057.565.057.47 0 .827-.079 1.073-.235.245-.161.368-.366.368-.616zm7.712 1.86a1.582 1.582 0 01-.108-.298 6.651 6.651 0 01-.069-.369 2.65 2.65 0 01-.362.312c-.131.093-.28.175-.445.247-.16.072-.336.129-.526.171a2.687 2.687 0 01-.603.064c-.364 0-.694-.051-.991-.152a2.4 2.4 0 01-.755-.432 1.929 1.929 0 01-.654-1.466c0-.737.273-1.299.819-1.689.55-.389 1.337-.584 2.361-.584h1.111v-.45c0-.364-.123-.652-.368-.864-.245-.216-.592-.323-1.041-.323a1.68 1.68 0 00-.533.076 1.07 1.07 0 00-.381.196.824.824 0 00-.229.299.908.908 0 00-.076.368h-1.517c0-.267.061-.525.184-.774.127-.254.311-.479.552-.673.242-.199.536-.358.883-.476a3.728 3.728 0 011.199-.178c.407 0 .783.051 1.13.152.347.098.648.246.902.445.254.194.453.44.596.736a2.3 2.3 0 01.216 1.028v3.06c0 .3.021.575.064.825.046.245.112.459.197.641V269h-1.556zm-1.828-1.098a2.031 2.031 0 001.009-.26c.14-.081.259-.172.356-.273.102-.102.182-.206.241-.311v-1.289h-.965c-.618 0-1.075.099-1.371.298-.292.199-.438.483-.438.851 0 .14.024.271.07.394a.861.861 0 00.21.311c.097.084.217.152.361.203.148.05.324.076.527.076zm5.059-2.387c0-.52.064-.996.191-1.428a3.38 3.38 0 01.558-1.111c.242-.309.531-.548.87-.717a2.565 2.565 0 011.149-.254c.41 0 .766.07 1.066.209.301.14.559.341.775.603l.063-.685h1.378v6.684c0 .461-.077.87-.229 1.225-.152.36-.366.662-.641.908a2.72 2.72 0 01-.978.558 3.808 3.808 0 01-2.596-.063 3.171 3.171 0 01-.679-.356 2.176 2.176 0 01-.552-.526l.723-.908c.259.304.536.522.832.654a2.294 2.294 0 001.619.088c.207-.071.383-.177.526-.317.144-.14.254-.313.331-.52.08-.204.12-.438.12-.705v-.463c-.216.237-.47.419-.762.546-.287.126-.624.19-1.009.19-.419 0-.798-.087-1.136-.26a2.673 2.673 0 01-.87-.73 3.402 3.402 0 01-.558-1.098 4.867 4.867 0 01-.191-1.391v-.133zm1.524.133c0 .309.031.599.095.87.063.271.161.508.292.711.131.203.298.364.501.482.208.115.451.172.73.172.352 0 .637-.072.857-.216.22-.148.396-.345.527-.59v-3.035a1.627 1.627 0 00-.533-.577c-.22-.144-.499-.216-.838-.216-.279 0-.523.059-.73.178a1.51 1.51 0 00-.508.489c-.131.207-.23.448-.298.723a3.857 3.857 0 00-.095.876v.133zm9.68 3.479c-.508 0-.971-.085-1.39-.254a3.245 3.245 0 01-1.079-.698 3.15 3.15 0 01-.692-1.048 3.457 3.457 0 01-.248-1.314v-.26c0-.546.087-1.037.26-1.472.178-.436.413-.809.705-1.118a3.072 3.072 0 011.028-.711 3.174 3.174 0 011.238-.247c.5 0 .94.085 1.32.254.381.165.699.4.953.704.258.301.452.658.584 1.073.131.415.196.87.196 1.365v.641h-4.76c.025.267.091.514.196.743.106.228.244.427.413.596.174.165.375.297.603.394.233.093.487.14.762.14.385 0 .738-.077 1.06-.229.326-.152.59-.362.793-.628l.825.774c-.11.165-.251.326-.425.482-.173.153-.376.29-.609.413a3.641 3.641 0 01-.787.286 3.7 3.7 0 01-.946.114zm-.184-5.897c-.212 0-.409.038-.591.114a1.475 1.475 0 00-.488.337 1.9 1.9 0 00-.368.533 2.6 2.6 0 00-.21.711h3.218v-.114a2.071 2.071 0 00-.12-.584 1.505 1.505 0 00-.286-.508 1.387 1.387 0 00-.482-.356 1.579 1.579 0 00-.673-.133zm6.95-3.301l-.158 2.533h-1.003v-3.212h1.161v.679zm2.482 0l-.158 2.533h-1.003v-3.212h1.161v.679zm5.263 8.163c0-.148.023-.287.069-.419a.984.984 0 01.559-.565c.14-.055.298-.082.476-.082s.334.027.47.082c.14.055.256.132.349.229a.861.861 0 01.216.336c.051.132.076.271.076.419a1.1 1.1 0 01-.076.413.925.925 0 01-.565.539 1.244 1.244 0 01-.47.083 1.29 1.29 0 01-.476-.083.94.94 0 01-.559-.539 1.205 1.205 0 01-.069-.413zm0-5.402c0-.148.023-.287.069-.419a.982.982 0 01.559-.564 1.29 1.29 0 01.476-.083c.178 0 .334.028.47.083.14.055.256.131.349.228a.861.861 0 01.216.336c.051.132.076.271.076.419 0 .149-.025.286-.076.413a.879.879 0 01-.216.324 1.005 1.005 0 01-.349.222 1.332 1.332 0 01-.47.076c-.178 0-.336-.025-.476-.076a.99.99 0 01-.559-.546 1.201 1.201 0 01-.069-.413zm15.418 5.402c0-.148.023-.287.07-.419a.962.962 0 01.216-.336.975.975 0 01.343-.229c.139-.055.298-.082.476-.082.177 0 .334.027.469.082.14.055.256.132.349.229a.84.84 0 01.216.336c.051.132.076.271.076.419a1.1 1.1 0 01-.076.413.855.855 0 01-.216.324.925.925 0 01-.349.215 1.238 1.238 0 01-.469.083c-.178 0-.337-.028-.476-.083a.932.932 0 01-.559-.539 1.182 1.182 0 01-.07-.413zm7.808 0c0-.148.023-.287.07-.419a.984.984 0 01.558-.565c.14-.055.298-.082.476-.082s.335.027.47.082c.14.055.256.132.349.229a.861.861 0 01.216.336c.051.132.076.271.076.419a1.1 1.1 0 01-.076.413.925.925 0 01-.565.539 1.24 1.24 0 01-.47.083 1.29 1.29 0 01-.476-.083.94.94 0 01-.558-.539 1.182 1.182 0 01-.07-.413zm7.807 0c0-.148.024-.287.07-.419a.962.962 0 01.216-.336.975.975 0 01.343-.229c.139-.055.298-.082.476-.082s.334.027.47.082a.973.973 0 01.349.229.848.848 0 01.215.336 1.15 1.15 0 010 .832.933.933 0 01-.564.539 1.244 1.244 0 01-.47.083c-.178 0-.337-.028-.476-.083a.932.932 0 01-.559-.539 1.206 1.206 0 01-.07-.413zm-117.92 17.304a.819.819 0 00.571-.184 1.24 1.24 0 00.35-.482c.084-.199.143-.423.177-.673.034-.245.05-.489.05-.73v-1.035a2.5 2.5 0 01.35-1.32c.233-.389.597-.687 1.092-.895-.495-.207-.86-.506-1.092-.895a2.547 2.547 0 01-.35-1.333v-1.035c0-.241-.008-.484-.024-.73a2.32 2.32 0 00-.127-.672 1.055 1.055 0 00-.343-.483c-.157-.127-.375-.188-.654-.184l.171-.882c.296 0 .561.042.794.127a2.087 2.087 0 011.079.85c.127.191.23.396.31.616.081.22.138.447.172.679.038.233.057.459.057.679v1.035c0 .593.138 1.02.413 1.282.275.258.698.388 1.27.388v1.117c-.572 0-.995.129-1.27.387s-.413.681-.413 1.269v1.035c0 .22-.02.447-.063.679a3.19 3.19 0 01-.19.68 3.11 3.11 0 01-.324.622 2.11 2.11 0 01-.464.507 2.125 2.125 0 01-1.37.47l-.172-.889zm10.055-1.605c0 .224-.03.454-.09.691-.054.237-.137.47-.247.699a3.603 3.603 0 01-.387.647 3.251 3.251 0 01-.495.552l-.857-.45c.182-.305.322-.627.419-.965.097-.334.146-.709.146-1.124v-1.326h1.517l-.006 1.276zm-8.989 6.138l-.158 2.533h-1.003v-3.212h1.161v.679zm2.482 0l-.158 2.533h-1.003v-3.212h1.161v.679zm7.643 7.211a.685.685 0 00-.07-.311.645.645 0 00-.254-.26 1.916 1.916 0 00-.495-.222 6.751 6.751 0 00-.8-.197 8.244 8.244 0 01-1.104-.305 3.639 3.639 0 01-.844-.425 1.868 1.868 0 01-.54-.571 1.497 1.497 0 01-.19-.762c0-.279.065-.544.196-.794.131-.253.318-.476.559-.666a2.84 2.84 0 01.888-.451 3.791 3.791 0 011.175-.171c.457 0 .865.057 1.225.171.364.115.67.271.92.47.25.195.44.425.572.692.135.266.203.552.203.857h-1.517a.875.875 0 00-.09-.387.966.966 0 00-.266-.337 1.3 1.3 0 00-.444-.228 1.845 1.845 0 00-.603-.089c-.229 0-.428.025-.597.076-.165.047-.302.11-.412.19a.77.77 0 00-.248.273.81.81 0 00-.019.641.632.632 0 00.228.254c.11.077.263.146.458.21.194.059.446.116.755.171.431.076.819.172 1.162.286.347.114.64.254.882.419.245.165.434.362.565.59.13.224.197.489.197.794 0 .304-.07.584-.21.838-.14.253-.339.473-.597.66a3.02 3.02 0 01-.933.425c-.36.102-.764.152-1.212.152-.5 0-.94-.065-1.32-.196-.381-.136-.7-.312-.959-.527a2.264 2.264 0 01-.59-.737 1.927 1.927 0 01-.197-.838h1.473a1.082 1.082 0 00.54.902c.151.089.32.154.507.197.186.038.375.057.565.057.47 0 .827-.079 1.073-.235.245-.161.368-.366.368-.616zm6.373-6.671v1.663h2.596v1.13h-2.596v3.294c0 .258.03.472.089.641.063.17.15.305.26.407.11.101.24.173.387.215.148.038.311.057.489.057.131 0 .267-.006.406-.019.144-.017.282-.033.413-.05.135-.022.258-.043.368-.064.114-.025.21-.049.286-.07l.171 1.048a2.43 2.43 0 01-.4.177c-.152.051-.32.094-.501.127a5.8 5.8 0 01-.572.077 5.382 5.382 0 01-.577.031c-.343 0-.658-.046-.946-.139a1.985 1.985 0 01-.736-.445 2.154 2.154 0 01-.483-.774c-.114-.317-.171-.696-.171-1.136v-3.377h-1.676v-1.13h1.676v-1.663h1.517zM72.402 299a1.534 1.534 0 01-.108-.298 6.535 6.535 0 01-.07-.369 2.481 2.481 0 01-.806.559 2.72 2.72 0 01-.527.171 2.677 2.677 0 01-.603.064c-.364 0-.694-.051-.99-.152a2.402 2.402 0 01-.755-.432 1.927 1.927 0 01-.654-1.466c0-.737.273-1.299.819-1.689.55-.389 1.337-.584 2.36-.584h1.112v-.45c0-.364-.123-.652-.369-.864-.245-.216-.592-.323-1.04-.323-.204 0-.381.025-.534.076-.152.046-.279.112-.38.196a.826.826 0 00-.23.299.895.895 0 00-.075.368h-1.517c0-.267.061-.525.184-.774a2.02 2.02 0 01.552-.673c.241-.199.535-.358.882-.476a3.731 3.731 0 011.2-.178c.406 0 .783.051 1.13.152.347.098.647.246.901.445.254.194.453.44.597.736.144.292.216.635.216 1.028v3.06c0 .3.02.575.063.825.047.245.112.459.197.641V299h-1.555zm-1.828-1.098a2.033 2.033 0 001.009-.26c.14-.081.258-.172.356-.273.101-.102.181-.206.24-.311v-1.289h-.964c-.618 0-1.075.099-1.371.298-.292.199-.438.483-.438.851 0 .14.023.271.07.394a.865.865 0 00.21.311c.096.084.217.152.36.203.149.05.325.076.528.076zm8.296-7.433v1.663h2.596v1.13H78.87v3.294c0 .258.03.472.089.641.063.17.15.305.26.407.11.101.24.173.387.215.149.038.312.057.49.057.13 0 .266-.006.405-.019.144-.017.282-.033.413-.05.135-.022.258-.043.368-.064.115-.025.21-.049.286-.07l.171 1.048c-.11.063-.243.122-.4.177a3.61 3.61 0 01-.501.127 5.8 5.8 0 01-.571.077 5.381 5.381 0 01-.578.031c-.343 0-.658-.046-.946-.139a1.984 1.984 0 01-.736-.445 2.154 2.154 0 01-.483-.774c-.114-.317-.171-.696-.171-1.136v-3.377h-1.676v-1.13h1.676v-1.663h1.517zm9.172 7.592a2.573 2.573 0 01-.85.793c-.33.186-.7.279-1.11.279-.356 0-.682-.055-.978-.165a1.895 1.895 0 01-.756-.52 2.61 2.61 0 01-.489-.914c-.114-.373-.171-.819-.171-1.34v-4.062h1.517v4.075c0 .33.023.603.07.819.05.216.127.387.228.514a.847.847 0 00.381.273c.153.051.335.076.546.076.406 0 .734-.078.984-.235.25-.161.438-.376.565-.647v-4.875h1.523V299h-1.37l-.09-.939zm7.878-.921a.687.687 0 00-.07-.311.646.646 0 00-.254-.26 1.916 1.916 0 00-.495-.222 6.751 6.751 0 00-.8-.197 8.244 8.244 0 01-1.104-.305 3.642 3.642 0 01-.844-.425 1.868 1.868 0 01-.54-.571 1.497 1.497 0 01-.19-.762c0-.279.065-.544.196-.794.132-.253.318-.476.559-.666a2.84 2.84 0 01.889-.451 3.79 3.79 0 011.174-.171c.457 0 .865.057 1.225.171.364.115.67.271.92.47.25.195.44.425.572.692.135.266.203.552.203.857h-1.517a.875.875 0 00-.09-.387.967.967 0 00-.266-.337 1.3 1.3 0 00-.444-.228 1.845 1.845 0 00-.603-.089 2.08 2.08 0 00-.597.076c-.165.047-.302.11-.412.19a.77.77 0 00-.248.273.813.813 0 00-.02.641.633.633 0 00.23.254c.11.077.262.146.457.21.194.059.446.116.755.171.432.076.819.172 1.162.286.347.114.64.254.882.419.245.165.434.362.565.59.131.224.197.489.197.794 0 .304-.07.584-.21.838a2.02 2.02 0 01-.596.66 3.02 3.02 0 01-.934.425c-.36.102-.763.152-1.212.152-.5 0-.94-.065-1.32-.196-.381-.136-.7-.312-.959-.527a2.263 2.263 0 01-.59-.737 1.927 1.927 0 01-.197-.838h1.473a1.083 1.083 0 00.54.902c.152.089.32.154.507.197.186.038.375.057.565.057.47 0 .827-.079 1.073-.235.245-.161.368-.366.368-.616zm9.128 3.053h-5.827V299h5.827v1.193zm5.014-2.272c.187 0 .367-.03.54-.089a1.55 1.55 0 00.47-.248c.135-.105.241-.23.317-.374a.886.886 0 00.114-.47h1.435a1.89 1.89 0 01-.229.933 2.42 2.42 0 01-.628.756 3.095 3.095 0 01-.914.514c-.347.127-.711.19-1.092.19-.529 0-.992-.091-1.39-.273a2.842 2.842 0 01-.997-.742 3.295 3.295 0 01-.603-1.098 4.445 4.445 0 01-.196-1.333v-.229c0-.47.065-.914.196-1.333a3.2 3.2 0 01.603-1.098c.267-.313.599-.561.997-.743.398-.186.859-.279 1.384-.279.415 0 .798.063 1.149.19.355.127.66.305.914.534.258.228.457.501.597.818.143.318.213.665.209 1.041h-1.435a1.216 1.216 0 00-.101-.526 1.218 1.218 0 00-.298-.432 1.493 1.493 0 00-.464-.292 1.54 1.54 0 00-.584-.108c-.317 0-.582.066-.793.197a1.454 1.454 0 00-.508.508 2.194 2.194 0 00-.273.711 4.305 4.305 0 00-.076.812v.229c0 .279.025.552.076.818.055.267.146.506.273.718.127.207.296.376.508.507.211.127.478.191.799.191zm4.526-2.419c0-.495.072-.956.216-1.383.148-.428.358-.798.629-1.111a2.914 2.914 0 011.003-.737 3.23 3.23 0 011.339-.266c.503 0 .952.089 1.346.266a2.85 2.85 0 011.003.737c.275.313.484.683.628 1.111.144.427.216.888.216 1.383v.134c0 .499-.072.962-.216 1.39a3.222 3.222 0 01-.628 1.111 2.887 2.887 0 01-.997.73c-.394.177-.84.266-1.339.266-.504 0-.955-.089-1.352-.266a2.948 2.948 0 01-1.003-.73 3.358 3.358 0 01-.629-1.111 4.331 4.331 0 01-.216-1.39v-.134zm1.517.134c0 .313.032.607.096.882.067.275.169.518.304.73.14.207.316.372.527.495.212.119.464.178.756.178.283 0 .529-.059.736-.178a1.53 1.53 0 00.52-.495c.14-.212.242-.455.305-.73.068-.275.102-.569.102-.882v-.134a3.61 3.61 0 00-.102-.869 2.138 2.138 0 00-.305-.724 1.442 1.442 0 00-1.269-.679c-.288 0-.538.061-.749.184a1.541 1.541 0 00-.521.495 2.333 2.333 0 00-.304.724 3.826 3.826 0 00-.096.869v.134zm6.367-.121c0-.52.064-.996.191-1.428.127-.432.309-.802.545-1.111.237-.309.523-.548.857-.717a2.513 2.513 0 011.137-.254c.376 0 .708.065.996.197.288.127.54.311.756.552v-3.504h1.523V299H127.1l-.077-.698a2.196 2.196 0 01-.78.615c-.301.14-.652.21-1.054.21-.415 0-.789-.087-1.124-.26a2.628 2.628 0 01-.857-.73 3.57 3.57 0 01-.545-1.098 4.867 4.867 0 01-.191-1.391v-.133zm1.517.133c0 .309.03.599.089.87s.152.508.279.711c.132.203.297.364.496.482.203.115.444.172.723.172.347 0 .631-.074.851-.222.22-.153.395-.356.527-.61v-2.983a1.583 1.583 0 00-.534-.597c-.22-.148-.497-.222-.831-.222-.284 0-.527.059-.73.178a1.464 1.464 0 00-.495.489 2.423 2.423 0 00-.286.723 4.169 4.169 0 00-.089.876v.133zm9.693 3.479c-.508 0-.971-.085-1.39-.254a3.245 3.245 0 01-1.079-.698 3.166 3.166 0 01-.692-1.048 3.457 3.457 0 01-.248-1.314v-.26c0-.546.087-1.037.261-1.472.177-.436.412-.809.704-1.118a3.076 3.076 0 011.029-.711 3.166 3.166 0 011.237-.247c.5 0 .94.085 1.321.254.381.165.698.4.952.704.258.301.453.658.584 1.073.131.415.197.87.197 1.365v.641h-4.761c.025.267.091.514.197.743.105.228.243.427.412.596.174.165.375.297.603.394.233.093.487.14.762.14.385 0 .738-.077 1.06-.229a2.1 2.1 0 00.794-.628l.825.774c-.11.165-.252.326-.426.482-.173.153-.376.29-.609.413a3.641 3.641 0 01-.787.286 3.7 3.7 0 01-.946.114zm-.184-5.897c-.212 0-.408.038-.59.114a1.47 1.47 0 00-.489.337 1.9 1.9 0 00-.368.533 2.635 2.635 0 00-.21.711h3.219v-.114a2.072 2.072 0 00-.121-.584 1.505 1.505 0 00-.286-.508 1.378 1.378 0 00-.482-.356 1.579 1.579 0 00-.673-.133zm6.951-3.301l-.159 2.533h-1.003v-3.212h1.162v.679zm2.482 0l-.159 2.533h-1.003v-3.212h1.162v.679zm5.262 8.163c0-.148.023-.287.07-.419a.935.935 0 01.216-.336.98.98 0 01.342-.229c.14-.055.299-.082.476-.082.178 0 .335.027.47.082.14.055.256.132.349.229a.85.85 0 01.216.336c.051.132.076.271.076.419a1.1 1.1 0 01-.076.413.925.925 0 01-.565.539 1.24 1.24 0 01-.47.083c-.177 0-.336-.028-.476-.083a.936.936 0 01-.558-.539 1.182 1.182 0 01-.07-.413zm0-5.402c0-.148.023-.287.07-.419a.977.977 0 01.558-.564c.14-.055.299-.083.476-.083.178 0 .335.028.47.083.14.055.256.131.349.228a.85.85 0 01.216.336c.051.132.076.271.076.419 0 .149-.025.286-.076.413a.867.867 0 01-.216.324 1.005 1.005 0 01-.349.222 1.328 1.328 0 01-.47.076c-.177 0-.336-.025-.476-.076a1.022 1.022 0 01-.342-.222.96.96 0 01-.216-.324 1.178 1.178 0 01-.07-.413zm18.522 3.028h1.162v1.225h-1.162V299h-1.517v-2.057h-4.011l-.039-.92 3.999-6.265h1.568v5.96zm-4.005 0h2.488v-3.935l-.165.298-2.323 3.637zm12.746-.235c0 .597-.07 1.124-.209 1.581a3.19 3.19 0 01-.591 1.143 2.477 2.477 0 01-.946.691 3.203 3.203 0 01-1.256.235c-.462 0-.878-.078-1.251-.235a2.536 2.536 0 01-.952-.691 3.339 3.339 0 01-.603-1.143c-.14-.457-.21-.984-.21-1.581v-2.209c0-.596.07-1.121.21-1.574.14-.457.338-.838.597-1.142a2.52 2.52 0 01.945-.699c.373-.156.79-.234 1.251-.234.465 0 .884.078 1.257.234.372.157.687.39.946.699.262.304.463.685.603 1.142.139.453.209.978.209 1.574v2.209zm-4.494-.577l2.958-2.203c-.034-.63-.174-1.096-.419-1.396-.241-.305-.595-.457-1.06-.457-.495 0-.865.175-1.111.526-.245.352-.368.891-.368 1.619v1.911zm2.971-1.01l-2.958 2.203c.076 1.21.569 1.816 1.479 1.816.986 0 1.479-.722 1.479-2.165v-1.854zm8.398 1.822h1.161v1.225h-1.161V299h-1.518v-2.057h-4.011l-.038-.92 3.999-6.265h1.568v5.96zm-4.006 0h2.488v-3.935l-.165.298-2.323 3.637zm-148.25 19.678a.819.819 0 00.572-.184 1.24 1.24 0 00.35-.482c.084-.199.143-.423.177-.673.034-.245.05-.489.05-.73v-1.035c0-.495.117-.935.35-1.32.232-.389.596-.687 1.091-.895-.495-.207-.858-.506-1.091-.895a2.548 2.548 0 01-.35-1.333v-1.035c0-.241-.008-.484-.025-.73a2.32 2.32 0 00-.127-.672 1.056 1.056 0 00-.342-.483c-.157-.127-.375-.188-.654-.184l.171-.882c.296 0 .56.042.794.127a2.086 2.086 0 011.079.85c.127.191.23.396.31.616.081.22.138.447.172.679.038.233.057.459.057.679v1.035c0 .593.138 1.02.413 1.282.275.258.698.388 1.27.388v1.117c-.572 0-.995.129-1.27.387s-.413.681-.413 1.269v1.035c0 .22-.021.447-.063.679a3.203 3.203 0 01-.19.68c-.085.22-.193.427-.325.622a2.11 2.11 0 01-.463.507 2.127 2.127 0 01-1.37.47l-.172-.889z" fill="#DF536B"></path></g><defs><filter id="filter0_i" x="152" y="0" width="147.12" height="147.12" filterUnits="userSpaceOnUse" color-interpolation-filters="sRGB"><feFlood flood-opacity="0" result="BackgroundImageFix"></feFlood><feBlend in="SourceGraphic" in2="BackgroundImageFix" result="shape"></feBlend><feColorMatrix in="SourceAlpha" values="0 0 0 0 0 0 0 0 0 0 0 0 0 0 0 0 0 0 127 0" result="hardAlpha"></feColorMatrix><feOffset dx="-15" dy="-15"></feOffset><feComposite in2="hardAlpha" operator="arithmetic" k2="-1" k3="1"></feComposite><feColorMatrix values="0 0 0 0 0.685017 0 0 0 0 0.773267 0 0 0 0 0.879167 0 0 0 1 0"></feColorMatrix><feBlend in2="shape" result="effect1_innerShadow"></feBlend></filter><filter id="filter1_dd" x="0" y="167" width="264" height="204" filterUnits="userSpaceOnUse" color-interpolation-filters="sRGB"><feFlood flood-opacity="0" result="BackgroundImageFix"></feFlood><feColorMatrix in="SourceAlpha" values="0 0 0 0 0 0 0 0 0 0 0 0 0 0 0 0 0 0 127 0"></feColorMatrix><feOffset dy="3"></feOffset><feGaussianBlur stdDeviation="6"></feGaussianBlur><feColorMatrix values="0 0 0 0 0.156863 0 0 0 0 0.2 0 0 0 0 0.254902 0 0 0 0.1 0"></feColorMatrix><feBlend in2="BackgroundImageFix" result="effect1_dropShadow"></feBlend><feColorMatrix in="SourceAlpha" values="0 0 0 0 0 0 0 0 0 0 0 0 0 0 0 0 0 0 127 0"></feColorMatrix><feOffset></feOffset><feGaussianBlur stdDeviation=".5"></feGaussianBlur><feColorMatrix values="0 0 0 0 0.156863 0 0 0 0 0.2 0 0 0 0 0.254902 0 0 0 0.2 0"></feColorMatrix><feBlend in2="effect1_dropShadow" result="effect2_dropShadow"></feBlend><feBlend in="SourceGraphic" in2="effect2_dropShadow" result="shape"></feBlend></filter></defs></svg>